<svg xmlns="http://www.w3.org/2000/svg" viewBox="0 0 594.69 575.66"><defs><style>.cls-1{fill:#ffe7b6;stroke:#ffa155;stroke-miterlimit:10;stroke-width:15px;}</style></defs><g id="Layer_2" data-name="Layer 2"><g id="B"><path class="cls-1" d="M586,327.59c-1.83-12.17-5.77-38.4-23.28-46.55C543.35,272,532.82,297,502,295.17c-35.9-2.1-49.55-37.69-92.25-35.74-8.39.39-10.17,1.87-12.47,0C376.51,242.5,505.23,105.17,468.8,41.68c-18-31.3-74.22-41.39-113-29.09C309.93,27.12,308.84,76,259.36,88.23c-31.85,7.88-60.89-4.14-69-7.48C142.74,61,143.32,25,108.1,15.09,64.35,2.81,5.9,42.29,7.53,68.28,9,91.74,58.4,87.15,85.66,133.11c18.07,30.47,5.76,48.32,27.42,73.13,21.08,24.13,39.62,15.15,59.84,36.57,31.3,33.16,20.51,90.42,18.29,103.06-6.42,36.53-21.25,43.47-59.84,113.86-27.81,50.73-51.65,94.21-39.89,105.55,9.8,9.46,44.07-5.79,66.48-24.93,32.72-27.94,29.94-55.46,57.35-67.32,21.71-9.39,44.52-1.25,57.35,3.32,58.69,20.94,59.39,74.88,99.73,83.11,21.14,4.32,47.06-14.85,98.9-53.19,50.31-37.2,81.88-61.3,102.23-105.55C586.89,371.64,589,347.65,586,327.59ZM179.64,156.66c1.27-5.25,59.84,19.25,106-6,13.73-7.5,12.45-11.8,39.38-31.68C358.79,94,379.24,78.72,387.35,84.07c15.25,10.05-11.92,107.43-80.71,151.59-8,5.16-35.24,22.63-50,13-12.77-8.32-3.43-28.6-16-51C222.86,166,178.65,160.75,179.64,156.66Zm301.63,229.1c-35.15,39.51-30,78-46.55,80.62-17.61,2.78-21.55-41.06-60.67-63.16-44.29-25-87.68,3.81-101.39-17.46-10.92-16.93,3.92-54.91,28.26-64.82,26.23-10.69,42.69,19.7,97.23,31.58,60.08,13.08,108.33-8.93,112.2,2.49C512.43,361.13,498.3,366.61,481.27,385.76Z"/></g></g></svg>