<?xml version="1.0" encoding="UTF-8"?>
<svg version="1.1" xmlns="http://www.w3.org/2000/svg" width="512" height="512">
<path d="M0 0 C4.93461319 2.29107041 7.35281968 5.29390165 10 10 C11 14 11 14 11 29 C78.32 29 145.64 29 215 29 C215 24.05 215 19.1 215 14 C216.57951086 7.50645535 218.70986559 4.71434969 224 1 C228.18611152 -1.09305576 233.44132948 -0.42364608 238 0 C242.96019263 2.30294658 245.43578107 5.21633107 248 10 C248.46782663 13.3111571 248.38060143 16.53964049 248.25 19.875 C248.23195313 20.75414063 248.21390625 21.63328125 248.1953125 22.5390625 C248.14848379 24.6931832 248.07674994 26.84673774 248 29 C249.17433594 28.96519531 250.34867187 28.93039063 251.55859375 28.89453125 C277.30548009 28.3583062 297.60921372 34.18073391 316.6875 52.1875 C331.81513194 67.83305372 337.37091667 86.59969815 337.16015625 107.84448242 C337.15307185 109.33046022 337.14702239 110.81644326 337.141922 112.3024292 C337.12975554 115.48787673 337.11221748 118.67323327 337.09100342 121.85863304 C337.0593384 126.90815726 337.05165701 131.95754339 337.04931641 137.00715637 C337.04854599 138.28992054 337.04854599 138.28992054 337.04776001 139.59859914 C337.04671866 141.34656713 337.04571439 143.09453515 337.0447464 144.84250319 C337.03687419 156.58511426 337.01171992 168.32724476 336.92822266 180.06958008 C336.87195414 188.00883201 336.85156996 195.94731459 336.87142277 203.88675195 C336.88045797 208.07849597 336.87167581 212.26843462 336.81863403 216.45989037 C336.76888976 220.40800786 336.76674937 224.35344096 336.79910851 228.30171204 C336.8027424 229.73914025 336.78970626 231.17673793 336.75748634 232.61380959 C336.5362813 243.09739938 339.1084882 249.06879082 345.54476929 256.96179676 C348.89002783 261.10135696 351.33183529 265.529066 353.75 270.25 C354.20826172 271.13695557 354.66652344 272.02391113 355.13867188 272.93774414 C365.12173697 292.78882128 369.23200707 313.74705419 369.25 335.875 C369.25067474 336.61676483 369.25134949 337.35852966 369.25204468 338.12277222 C369.23624559 349.03758076 368.84412579 359.40020588 366 370 C365.82839355 370.65097656 365.65678711 371.30195313 365.47998047 371.97265625 C355.09290294 410.51344793 330.38479446 442.51003593 295.859375 462.41796875 C274.16811384 474.55301033 250.92341336 480.22983813 226.125 480.25 C225.38290283 480.25067474 224.64080566 480.25134949 223.8762207 480.25204468 C212.9422971 480.23622626 202.62986471 479.7764572 192 477 C191.03078613 476.77449463 191.03078613 476.77449463 190.04199219 476.54443359 C180.7440269 474.37850699 172.14891737 470.95731838 163.5 466.9375 C162.6116748 466.53337891 161.72334961 466.12925781 160.80810547 465.71289062 C156.40907726 463.58894896 152.50748574 461.66848154 149.1333313 458.08668518 C136.92651283 446.05005426 121.54678691 447.49072956 105.5574646 447.59057617 C102.64396259 447.62612916 99.73063591 447.66890443 96.81725264 447.71306992 C91.78086354 447.77545657 86.74461644 447.76564189 81.70791626 447.76293945 C72.17760857 447.76785048 62.64867346 447.83014197 53.11878932 447.91655636 C36.06387184 448.06936109 19.00848572 448.1241196 1.95296252 448.15734291 C-4.01854687 448.17125042 -9.98919693 448.21023227 -15.9604075 448.27104855 C-19.68787525 448.30579954 -23.41531412 448.32426756 -27.1429081 448.3393116 C-28.855668 448.34985318 -30.56840337 448.36732584 -32.28100777 448.39269829 C-53.14799235 448.69471308 -71.18523925 443.26375094 -87 429 C-87.68449219 428.40832031 -88.36898437 427.81664062 -89.07421875 427.20703125 C-101.23166433 416.00498414 -110.04716244 398.83545824 -111.18774486 382.27389407 C-111.26243328 379.158802 -111.27620134 376.04918124 -111.26742554 372.93319702 C-111.27195665 371.7436934 -111.27648776 370.55418977 -111.28115618 369.32864058 C-111.29158145 366.04863186 -111.29313374 362.76876201 -111.29076743 359.48874211 C-111.29035754 355.94255223 -111.30141488 352.39639446 -111.31088257 348.85021973 C-111.32745722 341.91011987 -111.33299054 334.970054 -111.33410732 328.029936 C-111.33505962 322.38429799 -111.33917894 316.73867113 -111.34550858 311.09303665 C-111.36311247 295.06363097 -111.37234895 279.03425202 -111.37084763 263.0048366 C-111.37076772 262.14166338 -111.3706878 261.27849015 -111.37060547 260.38916016 C-111.37052371 259.52492481 -111.37044195 258.66068947 -111.37035771 257.77026518 C-111.36954537 243.77442822 -111.38867202 229.77869903 -111.4168822 215.78289323 C-111.44566314 201.38956026 -111.45941959 186.99627976 -111.45769465 172.60291731 C-111.45703248 164.53125621 -111.46244861 156.45970804 -111.48405075 148.38807297 C-111.50233142 141.51377285 -111.50655385 134.63963685 -111.4930319 127.76532285 C-111.48653632 124.26362635 -111.48625987 120.76224406 -111.5037384 117.26057816 C-111.61409049 90.19302854 -107.46531515 70.09206143 -88.25 49.875 C-71.52336435 33.60179725 -50.49479185 28.54704433 -27.8918457 28.84619141 C-25.92764954 28.88688523 -23.96375537 28.94179869 -22 29 C-22.05220703 27.15535156 -22.05220703 27.15535156 -22.10546875 25.2734375 C-22.13362045 23.64063873 -22.16091913 22.0078251 -22.1875 20.375 C-22.21263672 19.56675781 -22.23777344 18.75851563 -22.26367188 17.92578125 C-22.3256888 12.84039339 -21.83626723 9.40226311 -19 5 C-12.9146352 -0.49167068 -8.036045 -0.74680523 0 0 Z M-68.37109375 76.8046875 C-77.89695429 89.64289762 -79 102.10020932 -79 118 C47.72 118 174.44 118 305 118 C305 100.51572217 303.60904219 86.99773555 291.1875 74.12109375 C278.33141234 62.12035063 264.62727178 61.67714035 248 62 C247.97421875 63.30195312 247.9484375 64.60390625 247.921875 65.9453125 C247.86557299 67.67190756 247.80822613 69.39846876 247.75 71.125 C247.73582031 71.9809375 247.72164063 72.836875 247.70703125 73.71875 C247.49342254 79.27257643 246.68141223 82.5864495 243 87 C239.04172784 90.47848159 235.48041479 91.35925889 230.1953125 91.28125 C225.16545415 90.63685534 221.15473333 88.48997849 218.0625 84.5 C214.86175392 76.96883275 215.55546165 70.88738642 215 62 C147.68 62 80.36 62 11 62 C10.67 67.28 10.34 72.56 10 78 C9.01 80.31 8.02 82.62 7 85 C6.505 86.485 6.505 86.485 6 88 C0.73555212 90.49368584 -4.17650601 91.60776503 -10 91 C-15.34740414 89.04614079 -18.45618143 86.08763713 -21 81 C-21.15067214 79.5534758 -21.24861036 78.1012066 -21.31640625 76.6484375 C-21.35830078 75.79765625 -21.40019531 74.946875 -21.44335938 74.0703125 C-21.48267578 73.18085937 -21.52199219 72.29140625 -21.5625 71.375 C-21.60568359 70.4778125 -21.64886719 69.580625 -21.69335938 68.65625 C-21.79956861 66.43765717 -21.90161194 64.2189512 -22 62 C-39.87392658 61.4637822 -55.39689866 62.86133567 -68.37109375 76.8046875 Z M-79 151 C-79.04125 187.196875 -79.0825 223.39375 -79.125 260.6875 C-79.14320801 272.10690186 -79.16141602 283.52630371 -79.18017578 295.29174805 C-79.18686562 305.54886567 -79.18686562 305.54886567 -79.19088745 315.8059845 C-79.19274694 320.36626643 -79.20022684 324.92650157 -79.21115112 329.48677063 C-79.22492302 335.31341647 -79.22897235 341.13999477 -79.22614455 346.96665537 C-79.22673541 349.09894585 -79.23066933 351.23123882 -79.23843026 353.36351526 C-79.30427188 372.34308576 -79.10278717 389.41264092 -65.19921875 404.03125 C-52.65110503 415.26437489 -38.30357477 416.15863223 -22.24023438 416.11352539 C-20.85976158 416.11324291 -19.47928863 416.11340245 -18.09881592 416.1139679 C-14.37212245 416.11425348 -10.64546151 416.10839553 -6.91877556 416.10139394 C-3.01636802 416.09512047 0.88604035 416.09455345 4.78845215 416.09336853 C12.16888046 416.09026696 19.54929387 416.08206945 26.92971563 416.07201904 C35.33602694 416.06082137 43.74233898 416.05533826 52.14865589 416.05032361 C69.43244587 416.03988581 86.71622135 416.02230919 104 416 C102.82372866 413.01735832 101.63144835 410.17878988 100.046875 407.390625 C87.64764021 385.10935435 81.77009326 362.14786731 81.75 336.625 C81.74932526 335.85922638 81.74865051 335.09345276 81.74795532 334.30447388 C81.76347979 323.23813914 82.14003788 312.75070099 85 302 C85.25740967 300.97712891 85.25740967 300.97712891 85.52001953 299.93359375 C92.0330897 274.27710288 105.05895855 253.29629998 123 234 C123.55171875 233.39414063 124.1034375 232.78828125 124.671875 232.1640625 C134.48283661 221.81884061 146.44958465 214.51519218 159 208 C159.60537598 207.67902344 160.21075195 207.35804688 160.83447266 207.02734375 C168.52577445 202.99062428 176.29047441 200.10532507 184.625 197.6875 C185.45926514 197.44491455 186.29353027 197.2023291 187.15307617 196.95239258 C199.51055378 193.5533353 211.74576888 192.59136927 224.5 192.625 C225.24367828 192.62521149 225.98735657 192.62542297 226.75357056 192.62564087 C239.191372 192.66081499 250.95993092 193.6816328 263 197 C263.66370605 197.17660156 264.32741211 197.35320312 265.01123047 197.53515625 C277.09480165 200.84992813 290.07292007 206.15183353 300.43359375 213.27734375 C302.76160674 215.18577406 302.76160674 215.18577406 305 215 C305 193.88 305 172.76 305 151 C178.28 151 51.56 151 -79 151 Z M144 259 C143.26394531 259.72574219 142.52789062 260.45148438 141.76953125 261.19921875 C126.46263225 277.23938237 116.74685786 300.14999431 114 322 C113.8659375 323.00546875 113.731875 324.0109375 113.59375 325.046875 C110.66916234 353.36220095 119.04549854 382.09418113 136.67480469 404.37109375 C156.07707428 428.22001467 182.77843487 443.80469213 213.4609375 447.40625 C244.3126568 450.11578223 272.67546192 440.80536229 296.75 421.5 C298.51083847 420.01273813 300.26201512 418.51390507 302 417 C302.61359375 416.47148437 303.2271875 415.94296875 303.859375 415.3984375 C318.15788139 402.12125299 327.82195871 383.57426175 333 365 C333.3196875 363.91332031 333.639375 362.82664062 333.96875 361.70703125 C338.21221365 344.63494831 338.10156751 323.85818736 333 307 C332.79600586 306.32469238 332.59201172 305.64938477 332.38183594 304.95361328 C323.29015888 275.5677779 303.99697842 251.7833398 277 237 C232.39322662 213.5526947 178.97464001 223.5204933 144 259 Z " fill="#000000" transform="translate(127,16)"/>
<path d="M0 0 C4.59353236 2.13271145 8.19123847 5.17959199 10 10 C10.30238434 14.47354565 9.91332275 18.88170757 9.58984375 23.34765625 C9.46046283 26.05304735 9.33914075 28.75709575 9.23413086 31.46337891 C9.20674017 32.163016 9.17934948 32.8626531 9.15112877 33.58349133 C7.44339873 61.46736936 7.44339873 61.46736936 19.3551178 85.56416321 C24.74290899 90.95046046 30.76921537 95.59179902 37.12670898 99.77001953 C40.82268181 102.63848888 41.71072208 104.90778061 42.3359375 109.4296875 C42.43357762 115.54195919 41.79961294 119.12870136 38 124 C33.17938294 127.76008131 29.57547864 128.44339624 23.52734375 128.43359375 C16.23853926 127.18311879 11.79967209 122.22581775 6.828125 117.19140625 C6.06449646 116.42827621 5.30086792 115.66514618 4.51409912 114.87889099 C2.90699573 113.26945379 1.3035681 111.65633876 -0.29638672 110.03979492 C-2.74676191 107.56576935 -5.21024369 105.10539019 -7.67578125 102.64648438 C-9.23777388 101.07891649 -10.79899855 99.51058291 -12.359375 97.94140625 C-13.09581238 97.20588028 -13.83224976 96.47035431 -14.59100342 95.71253967 C-15.61281708 94.67642799 -15.61281708 94.67642799 -16.65527344 93.61938477 C-17.25450623 93.01554459 -17.85373901 92.41170441 -18.47113037 91.78956604 C-22.02647018 87.62798466 -22.29757658 84.00646107 -22.29052734 78.66455078 C-22.29724457 77.93233307 -22.30396179 77.20011536 -22.31088257 76.44570923 C-22.32985626 74.02884099 -22.33378643 71.61225055 -22.3359375 69.1953125 C-22.34236594 67.51146328 -22.34909434 65.82761519 -22.35610962 64.14376831 C-22.36808084 60.61486217 -22.37179061 57.08605392 -22.37060547 53.55712891 C-22.3704023 49.04217573 -22.3977023 44.52785218 -22.43214989 40.01304817 C-22.45442216 36.53511693 -22.45844291 33.05733713 -22.45738602 29.57934189 C-22.45974157 27.915209 -22.46856255 26.25107191 -22.48405075 24.58700943 C-22.50371791 22.25564134 -22.49787098 19.92562971 -22.48583984 17.59423828 C-22.49707886 16.91143799 -22.50831787 16.2286377 -22.51989746 15.52514648 C-22.45530643 10.58249822 -21.04469346 7.82941413 -18 4 C-12.72867143 -1.00776214 -6.89190982 -0.92775709 0 0 Z " fill="#000000" transform="translate(358,272)"/>
</svg>
