<?xml version="1.0" encoding="UTF-8"?>
<svg version="1.1" xmlns="http://www.w3.org/2000/svg" width="512" height="512">
<path d="M0 0 C1.55460937 0.08314453 1.55460937 0.08314453 3.140625 0.16796875 C12.95863648 1.92118509 21.36685272 7.22672595 29.875 12.1875 C31.11411138 12.90344881 32.3535376 13.61885296 33.59326172 14.33374023 C37.3174692 16.48426643 41.03428316 18.64734688 44.75 20.8125 C45.8121875 21.43044434 46.874375 22.04838867 47.96875 22.68505859 C52.90197397 25.55615044 57.83111283 28.43413602 62.7578125 31.31640625 C69.07376418 35.00747923 75.41076055 38.66160943 81.75 42.3125 C95.1002215 50.00356102 108.40733215 57.76733011 121.70898438 65.54199219 C133.03853028 72.16271892 144.37987668 78.76165858 155.75 85.3125 C167.14972898 91.88246902 178.53725731 98.47227687 189.88378906 105.13378906 C191.81044512 106.26221215 193.73952884 107.38649951 195.67089844 108.50683594 C198.45266862 110.12050757 201.22698416 111.74634283 204 113.375 C205.24209229 114.08982544 205.24209229 114.08982544 206.50927734 114.8190918 C211.71997347 117.90282763 215.730886 120.68721707 217.6875 126.6875 C217.76835237 130.73011843 217.14831274 133.5861719 214.75 136.8125 C208.14401511 142.28273899 200.49777196 146.3436752 193 150.4375 C184.86950778 154.93283084 176.7943288 159.49541477 168.8125 164.25 C160.86842018 168.9790317 152.88836849 173.63927663 144.875 178.25 C136.44474063 183.10195679 128.02482331 187.97051601 119.625 192.875 C118.64144531 193.44927734 117.65789062 194.02355469 116.64453125 194.61523438 C113.67940104 196.34716654 110.71462837 198.07970896 107.75 199.8125 C94.34610231 207.64692337 80.92616057 215.45163791 67.47241211 223.20019531 C60.11259919 227.44164862 52.77092398 231.71311463 45.4375 236 C42.50892925 237.70766927 39.5798182 239.4144065 36.65039062 241.12060547 C34.69194109 242.26303436 32.7349425 243.40795369 30.77929688 244.55517578 C27.91954107 246.23156804 25.05419457 247.89800853 22.1875 249.5625 C21.33696045 250.06418701 20.4864209 250.56587402 19.61010742 251.08276367 C12.33303585 255.28617125 5.88099492 257.17212203 -2.5 257.1875 C-3.18707031 257.21199219 -3.87414062 257.23648437 -4.58203125 257.26171875 C-15.734275 257.32333336 -25.13242575 251.47406892 -34.4375 245.9375 C-36.15668874 244.92994971 -37.87588026 243.92240411 -39.59527588 242.91520691 C-41.34680876 241.88721615 -43.09584782 240.85510225 -44.84423828 239.82177734 C-49.0260815 237.35463973 -53.22185496 234.91195462 -57.41870117 232.47045898 C-63.35375266 229.0164737 -69.28045207 225.54816646 -75.20898438 222.08300781 C-86.53852891 215.46228188 -97.87976603 208.86314773 -109.25 202.3125 C-122.60009178 194.62121162 -135.90733042 186.8576709 -149.20898438 179.08300781 C-152.18065506 177.34643163 -155.15268519 175.61047346 -158.125 173.875 C-159.10855469 173.30072266 -160.09210938 172.72644531 -161.10546875 172.13476562 C-167.41648124 168.45402557 -173.74016066 164.79593784 -180.07226562 161.15161133 C-184.40466383 158.65715171 -188.73279841 156.15534796 -193.06054688 153.65283203 C-195.19523036 152.42110789 -197.33197082 151.19294212 -199.47070312 149.96826172 C-202.5275094 148.21714303 -205.57686978 146.45366589 -208.625 144.6875 C-209.54039551 144.16728271 -210.45579102 143.64706543 -211.39892578 143.11108398 C-216.85308048 139.9307931 -221.14203248 137.21026706 -223.1875 130.9375 C-223.26985364 126.81981789 -222.24357829 124.40094093 -220.25 120.8125 C-217.02537802 117.97152359 -213.6454664 115.75536493 -209.91796875 113.6328125 C-208.88478516 113.04113281 -207.85160156 112.44945312 -206.78710938 111.83984375 C-205.68173828 111.21207031 -204.57636719 110.58429688 -203.4375 109.9375 C-201.67516904 108.93009979 -199.91375468 107.92110942 -198.15237427 106.91204834 C-196.94990929 106.22329757 -195.74716861 105.53502794 -194.54415894 104.847229 C-188.7585408 101.53799547 -183.00237117 98.17915497 -177.25 94.8125 C-167.84047252 89.31240623 -158.40528985 83.85800544 -148.9609375 78.41796875 C-141.7104851 74.23900872 -134.47511731 70.03509494 -127.25 65.8125 C-118.93248208 60.9514704 -110.59794347 56.12108897 -102.25 51.3125 C-88.87272896 43.60570441 -75.53674077 35.82921055 -62.21044922 28.03466797 C-56.20372385 24.52155364 -50.19392039 21.01384471 -44.17822266 17.51611328 C-42.21335641 16.37297199 -40.24950061 15.2280923 -38.28662109 14.08154297 C-35.44464626 12.42313253 -32.59799186 10.77305079 -29.75 9.125 C-28.90800049 8.63177246 -28.06600098 8.13854492 -27.19848633 7.63037109 C-18.44651343 2.59009744 -10.28390459 -0.67124008 0 0 Z " fill="#000000" transform="translate(254.25,77.1875)"/>
<path d="M0 0 C3.82638751 0.69420974 6.54168497 1.67142543 9.89453125 3.66796875 C10.83731934 4.22411865 11.78010742 4.78026855 12.75146484 5.35327148 C14.26667725 6.2612146 14.26667725 6.2612146 15.8125 7.1875 C17.98818433 8.47412225 20.1639683 9.76057601 22.33984375 11.046875 C24.00442627 12.0359082 24.00442627 12.0359082 25.70263672 13.04492188 C30.74517131 16.03474988 35.80962248 18.98659419 40.875 21.9375 C42.34996948 22.79831177 42.34996948 22.79831177 43.85473633 23.67651367 C52.31077794 28.60869063 60.79060323 33.49916676 69.27319336 38.38549805 C76.6743974 42.65139673 84.06038963 46.94258755 91.4375 51.25 C92.42322998 51.82411621 93.40895996 52.39823242 94.42456055 52.98974609 C99.0742765 55.69913934 103.71495788 58.42153492 108.3359375 61.1796875 C126.5888376 72.0192697 144.65987724 77.94876526 166.0625 72.6875 C175.63894791 69.46151166 184.324065 64.09460822 193 59 C193.86657227 58.49259277 194.73314453 57.98518555 195.62597656 57.46240234 C200.15074702 54.8071428 204.66372736 52.13258385 209.171875 49.44921875 C215.37473807 45.76534387 221.62174055 42.15997975 227.875 38.5625 C239.25781902 32.01132795 250.60976989 25.40896489 261.94873047 18.78222656 C265.18481006 16.89205366 268.4223067 15.00432676 271.66015625 13.1171875 C272.75247559 12.48047119 273.84479492 11.84375488 274.97021484 11.18774414 C277.06288327 9.96800016 279.15565135 8.74842713 281.24853516 7.52905273 C282.19132324 6.97934814 283.13411133 6.42964355 284.10546875 5.86328125 C284.93199951 5.38157471 285.75853027 4.89986816 286.61010742 4.40356445 C288.30045403 3.41083765 289.96821191 2.37917079 291.6184082 1.32104492 C294 0 294 0 297 0 C297.0699339 8.13728208 297.12302907 16.27443571 297.15543652 24.41194534 C297.17100124 28.19173146 297.19206809 31.97130991 297.22631836 35.75097656 C297.25924421 39.40794628 297.27692187 43.06471798 297.28463173 46.72182465 C297.29011635 48.1074815 297.30082379 49.49312921 297.31719017 50.87870026 C297.47308083 64.64093327 296.06378377 76.69273289 286.15649414 86.89916992 C280.02208444 92.54183754 273.33597988 96.56022849 266.0625 100.5625 C264.82303004 101.25582941 263.58427359 101.95043571 262.34619141 102.64624023 C259.80642752 104.07287879 257.26418787 105.49494489 254.72021484 106.9140625 C249.0719137 110.07238609 243.47490157 113.31939307 237.875 116.5625 C235.73960767 117.79431302 233.60419096 119.02608378 231.46875 120.2578125 C227.02474245 122.82488994 222.58857139 125.40498969 218.15625 127.9921875 C188.11222895 145.50102964 159.39896677 159.05418028 123.97265625 150.03515625 C105.70815 144.92612493 89.65039355 134.46722519 73.41113281 124.98779297 C69.02333227 122.43085967 64.6246993 119.89301745 60.22412109 117.3581543 C58.07735654 116.12091176 55.93184341 114.88149528 53.78759766 113.63989258 C48.7798508 110.74176807 43.76522701 107.85903202 38.71557617 105.03460693 C36.94743613 104.04462574 35.18231095 103.04946596 33.41796875 102.05273438 C31.21801878 100.81196259 29.01266451 99.58069966 26.80078125 98.36132812 C16.44360088 92.49314334 6.11321581 85.1869943 2.15263367 73.49945068 C-0.09479836 65.21640625 -0.39383711 57.36759763 -0.29296875 48.828125 C-0.28735714 47.41038467 -0.28309447 45.99263842 -0.28010559 44.57489014 C-0.26877963 40.88577543 -0.23942207 37.19702841 -0.20599365 33.50805664 C-0.17502468 29.72677582 -0.1615436 25.94543422 -0.14648438 22.1640625 C-0.11453721 14.77587602 -0.06349429 7.38798998 0 0 Z " fill="#000000" transform="translate(103,282)"/>
<path d="M0 0 C0.00054477 0.62414638 0.00108953 1.24829275 0.00165081 1.89135265 C0.01662119 17.08154924 0.05907802 32.2713993 0.13209057 47.46141338 C0.16673696 54.80723577 0.1920956 62.15287057 0.19555664 69.4987793 C0.19859706 75.90185291 0.21909749 82.30459243 0.26052457 88.707537 C0.28184988 92.09764279 0.29445803 95.48727367 0.28615379 98.87744713 C0.28127027 102.66320334 0.30724444 106.44756882 0.34057617 110.2331543 C0.33195053 111.35596802 0.32332489 112.47878174 0.31443787 113.63562012 C0.33895699 119.8233628 0.33895699 119.8233628 3.40058899 125.04011536 C4.25839462 125.68687729 5.11620026 126.33363922 6 127 C11.58878877 134.76220662 11.6778532 141.7327784 11 151 C9.385 157.27515059 4.98379707 162.02771354 0 166 C-7.159786 169.97765889 -14.82823982 170.95194905 -22.73828125 168.83984375 C-30.46038169 165.97239713 -34.87612607 161.55114499 -38.90625 154.46484375 C-42.0161767 147.45640181 -41.60823473 140.38901968 -39.05859375 133.2890625 C-37.29290209 129.47099861 -34.94525805 126.01089054 -32 123 C-31.34 123 -30.68 123 -30 123 C-30.03330917 121.69200943 -30.06661835 120.38401886 -30.10093689 119.03639221 C-30.40537785 106.69306164 -30.6300317 94.35049479 -30.77718258 82.00425816 C-30.85538369 75.65692441 -30.96137704 69.31262689 -31.1315918 62.96704102 C-31.29492488 56.83945519 -31.38432702 50.71478283 -31.42315865 44.58518791 C-31.45081717 42.2504379 -31.50483763 39.91584283 -31.58595085 37.58233833 C-32.18119239 19.74402813 -32.18119239 19.74402813 -28.52851868 15.14881706 C-24.47060485 11.68851791 -19.94808224 9.86056043 -15 8 C-13.48177136 7.16030873 -11.97832197 6.29180082 -10.5078125 5.37109375 C-8.83332031 4.41396484 -8.83332031 4.41396484 -7.125 3.4375 C-6.53332031 3.09654297 -5.94164062 2.75558594 -5.33203125 2.40429688 C-1.12330231 0 -1.12330231 0 0 0 Z " fill="#000000" transform="translate(469,241)"/>
</svg>
