<?xml version="1.0" encoding="UTF-8"?>
<svg version="1.1" xmlns="http://www.w3.org/2000/svg" width="512" height="512">
<path d="M0 0 C13.85132878 -1.01972973 24.81640965 7.61061964 35.80859375 14.953125 C59.00803817 30.40835812 84.6922343 34.6595328 112.24609375 30.390625 C126.4803642 27.21253317 139.08159762 20.82424369 150.87109375 12.390625 C154.14756358 10.28396124 157.48826937 8.32070271 160.87109375 6.390625 C161.7940625 5.82859375 162.71703125 5.2665625 163.66796875 4.6875 C176.08871174 -2.34434921 189.57146306 -0.21095382 202.87109375 3.390625 C212.68681581 6.35844876 220.94441812 10.82245195 228.87109375 17.390625 C229.6496875 18.01839844 230.42828125 18.64617187 231.23046875 19.29296875 C260.36197194 43.85383954 269.58831071 85.49140318 272.68862915 121.84210205 C273.17006128 128.56636982 273.24299633 135.29578886 273.24169922 142.03491211 C273.24611148 144.58838842 273.282755 147.14018106 273.3203125 149.69335938 C273.46224535 170.24904027 268.35633732 188.34252021 253.87109375 203.45263672 C252.55378517 204.78138027 251.21319456 206.08692768 249.87109375 207.390625 C249.24203125 208.00550781 248.61296875 208.62039063 247.96484375 209.25390625 C246.32794374 210.74796357 244.65922679 212.08223497 242.87109375 213.390625 C242.21753906 213.87789062 241.56398438 214.36515625 240.890625 214.8671875 C225.28166308 225.34480393 207.69704456 226.27247937 189.50952148 226.16699219 C187.12215216 226.17514237 184.73479039 226.18583656 182.34744263 226.19885254 C175.91968662 226.2259878 169.49251447 226.21569143 163.06474948 226.19657803 C159.03805362 226.18583851 155.01143062 226.18794996 150.98472786 226.19351959 C150.31253568 226.19443899 149.64034349 226.19535839 148.94778185 226.19630565 C147.58148912 226.19822434 146.21519643 226.20016963 144.84890378 226.2021412 C132.09176244 226.21917629 119.33488144 226.19969527 106.57778282 226.167339 C95.67192369 226.14053288 84.76644794 226.14520236 73.8605957 226.17285156 C61.14200794 226.20508224 48.42364722 226.21753545 35.7050243 226.19917798 C34.34456419 226.19726703 32.98410405 226.1953808 31.62364388 226.19351959 C30.95457444 226.19259394 30.28550501 226.19166829 29.59616075 226.19071458 C24.91953695 226.18557073 20.24310294 226.19449759 15.5664959 226.20839691 C9.25333647 226.22585334 2.94089417 226.21348203 -3.37218857 226.17903137 C-5.67542651 226.17116393 -7.97872584 226.17326168 -10.28193855 226.18660736 C-33.99797839 226.31125573 -53.2324968 220.6999978 -70.75390625 204.078125 C-83.23319241 191.10775582 -89.63709096 174.82102444 -89.52734375 156.93359375 C-89.53164902 155.33720818 -89.53164902 155.33720818 -89.53604126 153.70857239 C-89.5380705 151.46562159 -89.53262109 149.22265264 -89.52001953 146.97973633 C-89.50412705 143.62473703 -89.51981658 140.27097514 -89.5390625 136.91601562 C-89.55904906 118.14396363 -87.846052 99.86410814 -82.94140625 81.703125 C-82.64097412 80.57302002 -82.34054199 79.44291504 -82.03100586 78.27856445 C-76.64716122 58.74741105 -68.55319658 39.92629982 -54.12890625 25.390625 C-53.28328125 24.50375 -52.43765625 23.616875 -51.56640625 22.703125 C-36.20420445 8.12872843 -20.88079429 2.60684074 0 0 Z " fill="#000000" transform="translate(164.12890625,247.609375)"/>
<path d="M0 0 C1.23784744 0.00771927 1.23784744 0.00771927 2.5007019 0.01559448 C31.28442567 0.25793616 54.49657904 11.18873958 75.453125 30.78125 C96.88422171 53.55944421 106.25573939 80.29371789 105.46875 111.359375 C104.4079946 136.05729661 95.2849801 157.87081424 78.1875 175.6875 C77.2212034 176.86852918 76.26210619 178.05550969 75.3125 179.25 C61.06142817 195.9950094 36.59140358 207.63775403 14.94921875 210.40625 C-14.98311488 212.64418149 -43.35186266 206.92523619 -66.75 187.125 C-68.79861585 185.33973432 -70.80680285 183.52191172 -72.8125 181.6875 C-73.84503906 180.74390625 -73.84503906 180.74390625 -74.8984375 179.78125 C-76.61073619 178.13868293 -78.22084594 176.44690192 -79.8125 174.6875 C-80.4209375 174.03394531 -81.029375 173.38039062 -81.65625 172.70703125 C-97.91076709 153.96918516 -105.22921994 129.61197125 -105.0625 105.1875 C-105.07023438 104.05441406 -105.07796875 102.92132813 -105.0859375 101.75390625 C-105.06163916 91.14768298 -103.76408475 81.15237428 -100.0625 71.1875 C-99.79864502 70.4653833 -99.53479004 69.7432666 -99.26293945 68.99926758 C-95.01193946 57.62326313 -89.47421906 48.13345501 -81.8125 38.6875 C-81.1628125 37.883125 -80.513125 37.07875 -79.84375 36.25 C-74.78394982 30.27777684 -69.0147506 25.43760166 -62.8125 20.6875 C-62.03261719 20.08035156 -61.25273437 19.47320312 -60.44921875 18.84765625 C-55.6513009 15.29155243 -50.59409623 12.3281809 -45.3125 9.5625 C-44.73927002 9.24982178 -44.16604004 8.93714355 -43.57543945 8.61499023 C-29.82252827 1.68699513 -15.19025688 -0.21659459 0 0 Z " fill="#000000" transform="translate(252.8125,38.3125)"/>
</svg>
